<svg width="71" height="60" viewBox="0 0 71 60" fill="none" xmlns="http://www.w3.org/2000/svg">
<g id="Group 2">
<g id="Group">
<g id="Group_2">
<path id="Vector" d="M57.6378 36.378C65.1969 35.1969 70.8661 28.8189 70.8661 21.0236C70.8661 12.5197 63.7795 5.43307 55.2756 5.43307C49.6063 5.43307 44.6457 8.50394 42.0472 12.7559H17.2441L15.8268 6.8504C14.6457 2.83465 11.1024 0 6.85039 0H2.36221C1.1811 0 0 1.1811 0 2.36221C0 3.77953 1.1811 4.72441 2.36221 4.72441H6.85039C8.97638 4.72441 10.6299 6.14173 11.1024 8.0315L12.9921 15.5906L16.7717 40.8661C17.0079 42.2835 17.7165 43.4646 18.4252 44.6457C16.063 46.063 14.1732 48.6614 14.1732 51.7323C14.1732 56.2205 17.9528 60 22.4409 60C26.9291 60 30.7087 56.2205 30.7087 51.7323C30.7087 50.5512 30.4724 49.1339 30 48.189H43.4646C42.9921 49.1339 42.7559 50.5512 42.7559 51.7323C42.7559 56.2205 46.5354 60 51.0236 60C55.5118 60 59.2913 56.2205 59.2913 51.7323C59.2913 48.6614 57.6378 46.063 55.2756 44.6457C55.9843 43.4646 56.6929 42.2835 56.9291 40.8661L57.6378 36.378ZM22.6772 55.2756C20.7874 55.2756 19.1339 53.6221 19.1339 51.7323C19.1339 49.8425 20.7874 48.189 22.6772 48.189C24.5669 48.189 26.2205 49.8425 26.2205 51.7323C26.2205 53.6221 24.5669 55.2756 22.6772 55.2756ZM25.748 43.4646C23.622 43.4646 21.9685 42.0472 21.4961 40.1575L18.189 17.7165H40.1575C39.9213 18.8976 39.685 19.8425 39.685 21.0236C39.685 28.8189 45.3543 35.1969 52.9134 36.378L52.441 39.9213C51.9685 42.0473 50.315 43.4646 48.189 43.4646H25.748ZM51.2598 55.2756C49.3701 55.2756 47.7165 53.6221 47.7165 51.7323C47.7165 49.8425 49.3701 48.189 51.2598 48.189C53.1496 48.189 54.8032 49.8425 54.8032 51.7323C54.8032 53.6221 53.1496 55.2756 51.2598 55.2756ZM55.2756 31.8898C54.5669 31.8898 54.0945 31.8898 53.6221 31.6535C48.4252 30.7087 44.6457 26.2205 44.6457 21.0236C44.6457 19.8425 44.8819 18.6614 45.1181 17.7165C45.8268 15.8268 46.7717 14.1732 48.189 12.9921C50.0787 11.3386 52.6772 10.3937 55.2756 10.3937C61.1811 10.3937 66.1417 15.3543 66.1417 21.2598C66.1417 26.2205 62.8347 30.2362 58.3465 31.6535C57.4016 31.8898 56.4567 31.8898 55.2756 31.8898Z" fill="#1C75BC"/>
<path id="Vector_2" d="M62.3627 21.0237C62.3627 22.441 61.1816 23.3859 60.0005 23.3859H57.6383V25.7481C57.6383 27.1654 56.4572 28.1103 55.2761 28.1103C53.8587 28.1103 52.9139 27.1654 52.9139 25.7481V23.3859H50.5517C49.1343 23.3859 48.1895 22.441 48.1895 21.0237C48.1895 19.6064 49.1343 18.6615 50.5517 18.6615H52.9139V16.2993C52.9139 15.1182 53.8587 13.9371 55.2761 13.9371C56.4572 13.9371 57.6383 15.1182 57.6383 16.2993V18.6615H60.0005C61.4178 18.6615 62.3627 19.8426 62.3627 21.0237Z" fill="#FB7203"/>
</g>
</g>
</g>
</svg>
