<svg width="13" height="8" viewBox="0 0 13 8" fill="none" xmlns="http://www.w3.org/2000/svg">
<path id="Vector" d="M12.9649 7.86127C12.9879 7.82408 13 7.78283 13 7.74097C12.9999 7.68873 12.9809 7.63773 12.9454 7.59467L6.75987 0.111611C6.73143 0.0771885 6.69337 0.0490441 6.64898 0.0296016C6.6046 0.0101585 6.55521 0 6.50506 0C6.45492 0 6.40553 0.0101585 6.36114 0.0296016C6.31676 0.0490441 6.2787 0.0771885 6.25026 0.111611L0.0543288 7.59467C0.0222011 7.63379 0.00356935 7.67951 0.000463707 7.72685C-0.00264194 7.77419 0.00989769 7.82133 0.0367162 7.86313C0.0635347 7.90494 0.103603 7.93981 0.152556 7.96394C0.201508 7.98807 0.257467 8.00054 0.314334 7.99998L12.6906 7.99998C12.7472 7.99997 12.8026 7.98703 12.851 7.96258C12.8994 7.93812 12.9388 7.90308 12.9649 7.86127Z" fill="#27C524"/>
</svg>
