<svg width="23" height="20" viewBox="0 0 23 20" fill="none" xmlns="http://www.w3.org/2000/svg">
<g id="Group">
<path id="Vector" d="M11.1111 0L0 5.55556V20H4.44444V8.88889H17.7778V20H22.2222V5.55556L11.1111 0Z" fill="#3C5A99"/>
<path id="Vector_2" d="M7.77789 17.7778H5.55566V20H7.77789V17.7778Z" fill="#3C5A99"/>
<path id="Vector_3" d="M7.77789 14.4444H5.55566V16.6667H7.77789V14.4444Z" fill="#3C5A99"/>
<path id="Vector_4" d="M7.77789 11.1111H5.55566V13.3333H7.77789V11.1111Z" fill="#3C5A99"/>
<path id="Vector_5" d="M11.1109 11.1111H8.88867V13.3333H11.1109V11.1111Z" fill="#3C5A99"/>
<path id="Vector_6" d="M11.1109 17.7778H8.88867V20H11.1109V17.7778Z" fill="#3C5A99"/>
<path id="Vector_7" d="M11.1109 14.4444H8.88867V16.6667H11.1109V14.4444Z" fill="#3C5A99"/>
<path id="Vector_8" d="M14.4449 17.7778H12.2227V20H14.4449V17.7778Z" fill="#3C5A99"/>
<path id="Vector_9" d="M14.4449 14.4444H12.2227V16.6667H14.4449V14.4444Z" fill="#3C5A99"/>
</g>
</svg>
