<svg width="25" height="24" viewBox="0 0 25 24" fill="none" xmlns="http://www.w3.org/2000/svg">
<g id="Group">
<path id="Vector" d="M20.7248 0H4.01835C1.81651 0 0 1.81651 0 4.04587V14.945C0 17.1743 1.81651 18.9633 4.01835 18.9633H11.8624L20.367 24L19.9541 18.9633H20.7523C22.9817 18.9633 24.7982 17.1468 24.7982 14.945V4.04587C24.7706 1.81651 22.9541 0 20.7248 0ZM5.80734 9.88073C5.80734 9.19266 6.3578 8.6422 7.04587 8.6422C7.73395 8.6422 8.2844 9.19266 8.2844 9.88073C8.2844 10.5688 7.73395 11.1193 7.04587 11.1193C6.3578 11.1193 5.80734 10.5413 5.80734 9.88073ZM11.3945 9.88073C11.3945 9.19266 11.945 8.6422 12.633 8.6422C13.3211 8.6422 13.8716 9.19266 13.8716 9.88073C13.8716 10.5688 13.3211 11.1193 12.633 11.1193C11.945 11.0917 11.3945 10.5413 11.3945 9.88073ZM18.1927 11.0917C17.5046 11.0917 16.9541 10.5413 16.9541 9.85321C16.9541 9.16514 17.5046 8.61468 18.1927 8.61468C18.8807 8.61468 19.4312 9.16514 19.4312 9.85321C19.4312 10.5413 18.8807 11.0917 18.1927 11.0917Z" fill="#6B7881"/>
</g>
</svg>
