<svg width="13" height="8" viewBox="0 0 13 8" fill="none" xmlns="http://www.w3.org/2000/svg">
<path id="Vector" d="M0.0351 0.138733C0.0120516 0.175921 1.71661e-05 0.217168 0 0.259026C8.4877e-05 0.311267 0.0191174 0.362267 0.0546007 0.405328L6.24013 7.88839C6.26857 7.92281 6.30663 7.95096 6.35102 7.9704C6.3954 7.98984 6.44479 8 6.49494 8C6.54508 8 6.59447 7.98984 6.63886 7.9704C6.68324 7.95096 6.7213 7.92281 6.74974 7.88839L12.9457 0.405328C12.9778 0.366209 12.9964 0.32049 12.9995 0.273152C13.0026 0.225815 12.9901 0.178675 12.9633 0.136868C12.9365 0.0950624 12.8964 0.0601942 12.8474 0.0360632C12.7985 0.0119322 12.7425 -0.00053586 12.6857 1.76598e-05L0.309406 1.76598e-05C0.252841 2.84572e-05 0.197363 0.0129653 0.149 0.0374218C0.100638 0.0618783 0.061244 0.0969186 0.0351 0.138733Z" fill="#FF0000"/>
</svg>
