<svg width="34" height="20" viewBox="0 0 34 20" fill="none" xmlns="http://www.w3.org/2000/svg">
<g id="Group">
<path id="Vector" fill-rule="evenodd" clip-rule="evenodd" d="M22.3913 3.08696C23.7392 3.08696 25.087 3.04348 26.3479 3.08696C27.4783 3.17391 28.6957 3.30435 29.4783 4.21739C30.2174 5.04348 30.3044 6.47826 30.2609 7.78261C34.6087 8.78261 34.3044 16.9565 29.3913 16.9565H28.6522C28.3044 18.6957 26.7392 20 24.8696 20C23.0435 20 21.4783 18.6957 21.1305 16.9565H14.7827C14.4348 18.6957 12.8696 20 11.0435 20C9.17396 20 7.60874 18.6957 7.26091 16.9565H3.91309V12.6522H5.4783V15.3913H7.26091C7.60874 13.6522 9.17396 12.3043 11.0435 12.3043C12.8696 12.3043 14.4348 13.6522 14.7827 15.3913H20.8696V1.52174H5.4783V2.69565H3.91309V0H22.3913V3.08696ZM30.0435 7.73913C30 7.73913 29.9566 7.73913 29.8696 7.73913C29.9566 7.73913 30 7.73913 30.0435 7.73913ZM29.8261 7.69565C29.7826 7.69565 29.6957 7.69565 29.6522 7.69565C29.6957 7.69565 29.7826 7.69565 29.8261 7.69565ZM29.6087 7.69565C29.5218 7.69565 29.4783 7.69565 29.3913 7.69565C29.4783 7.69565 29.5218 7.69565 29.6087 7.69565ZM28.7392 7.69565C28.7826 4.34783 28.5218 4.56522 22.3913 4.6087V7.69565H28.7392ZM22.3913 13.2174C23.087 12.6522 23.9566 12.3043 24.8696 12.3043C26.7392 12.3043 28.3044 13.6522 28.6522 15.3913H29.3913C32.6087 15.3913 32.6087 9.26087 29.3913 9.26087H22.3913V13.2174ZM11.0435 13.8696C12.3044 13.8696 13.3479 14.913 13.3479 16.1739C13.3479 17.4348 12.3044 18.4783 11.0435 18.4783C9.73917 18.4783 8.69569 17.4348 8.69569 16.1739C8.69569 14.913 9.73917 13.8696 11.0435 13.8696ZM24.8696 13.8696C23.6087 13.8696 22.5653 14.913 22.5653 16.1739C22.5653 17.4348 23.6087 18.4783 24.8696 18.4783C26.174 18.4783 27.2174 17.4348 27.2174 16.1739C27.2174 14.913 26.174 13.8696 24.8696 13.8696Z" fill="#27AAE1"/>
<path id="Vector_2" fill-rule="evenodd" clip-rule="evenodd" d="M6.78261 5.00001V1.95653L12.4783 7.69566L6.78261 13.3913V10.3478H0V8.65218H8.47826V9.26088L10.087 7.69566L8.47826 6.08696V6.69566H0V5.00001H6.78261Z" fill="#27AAE1"/>
</g>
</svg>
