<svg width="28" height="20" viewBox="0 0 28 20" fill="none" xmlns="http://www.w3.org/2000/svg">
<g id="Group">
<g id="Group_2">
<path id="Vector" d="M26.2651 4.57831H1.20482C0.53012 4.57831 0 5.10843 0 5.78313V18.7952C0 19.4699 0.53012 20 1.20482 20H26.2651C26.9398 20 27.4699 19.4699 27.4699 18.7952V5.78313C27.4699 5.10843 26.9398 4.57831 26.2651 4.57831ZM1.44578 6.02409H2.89157C2.89157 6.69879 2.36145 7.22891 1.68675 7.22891H1.44578V6.02409ZM1.44578 18.5542V17.3494H1.68675C2.36145 17.3494 2.89157 17.8795 2.89157 18.5542H1.44578ZM26.0241 18.5542H24.5783C24.5783 17.8795 25.1084 17.3494 25.7831 17.3494H26.0241V18.5542ZM26.0241 15.9036H25.7831C24.3373 15.9036 23.1325 17.1084 23.1325 18.5542H4.33735C4.33735 17.1084 3.13253 15.9036 1.68675 15.9036H1.44578V8.67469H1.68675C3.13253 8.67469 4.33735 7.46987 4.33735 6.02409H23.3735C23.3735 7.46987 24.5783 8.67469 26.0241 8.67469V15.9036ZM26.0241 7.22891C25.3494 7.22891 24.8193 6.69879 24.8193 6.02409H26.0241V7.22891Z" fill="#FB7203"/>
<path id="Vector_2" d="M24.8191 2.40964H2.65039V3.85542H24.8191V2.40964Z" fill="#FB7203"/>
<path id="Vector_3" d="M21.9275 0H5.54199V1.44578H21.9275V0Z" fill="#FB7203"/>
<path id="Vector_4" d="M17.33 15.8603C19.3061 13.8842 19.3061 10.6802 17.33 8.7041C15.3539 6.72797 12.1499 6.72797 10.1738 8.7041C8.19767 10.6802 8.19767 13.8842 10.1738 15.8603C12.1499 17.8364 15.3539 17.8364 17.33 15.8603Z" fill="#FB7203"/>
<path id="Vector_5" d="M5.05956 9.9759C5.59188 9.9759 6.02341 9.54437 6.02341 9.01204C6.02341 8.47972 5.59188 8.04819 5.05956 8.04819C4.52724 8.04819 4.0957 8.47972 4.0957 9.01204C4.0957 9.54437 4.52724 9.9759 5.05956 9.9759Z" fill="#FB7203"/>
<path id="Vector_6" d="M22.4101 16.7229C22.9425 16.7229 23.374 16.2914 23.374 15.759C23.374 15.2267 22.9425 14.7952 22.4101 14.7952C21.8778 14.7952 21.4463 15.2267 21.4463 15.759C21.4463 16.2914 21.8778 16.7229 22.4101 16.7229Z" fill="#FB7203"/>
</g>
</g>
</svg>
