<svg width="17" height="20" viewBox="0 0 17 20" fill="none" xmlns="http://www.w3.org/2000/svg">
<g id="Group">
<g id="Group_2">
<path id="Vector" d="M13.1146 3.60275H16.5268C16.4852 3.55399 16.4435 3.50514 16.3936 3.46209L12.7074 0.332235C12.666 0.296081 12.6191 0.267059 12.5732 0.236572V3.20251C12.5732 3.41944 12.8212 3.60275 13.1146 3.60275Z" fill="#3CD4D4"/>
</g>
<g id="Group_3">
<path id="Vector_2" d="M10.466 10.7333L9.29726 10.5532L8.76894 9.42856C8.70091 9.28843 8.56083 9.20039 8.40473 9.20039C8.24863 9.20039 8.10856 9.28843 8.04451 9.42856L7.51621 10.5532L6.34348 10.7333C6.1954 10.7573 6.07132 10.8574 6.0233 11.0015C5.97928 11.1456 6.01531 11.3017 6.11935 11.4097L6.97587 12.2902L6.77575 13.539C6.74773 13.6871 6.81178 13.8392 6.93986 13.9273C7.06394 14.0153 7.22802 14.0273 7.36412 13.9512L8.40473 13.3749L9.44935 13.9512C9.5094 13.9873 9.57743 14.0033 9.64149 14.0033C9.72552 14.0033 9.80557 13.9792 9.87361 13.9273C9.99768 13.8392 10.0617 13.6871 10.0377 13.539L9.83359 12.2902L10.6941 11.4097C10.7982 11.3017 10.8342 11.1456 10.7862 11.0015C10.7381 10.8574 10.6141 10.7573 10.466 10.7333Z" fill="#3CD4D4"/>
</g>
<g id="Group_4">
<path id="Vector_3" d="M13.1148 4.40323C12.3749 4.40323 11.773 3.86463 11.773 3.20251V0H1.3448C0.604367 0 0 0.540315 0 1.20072V18.7913C0 19.4517 0.604367 19.992 1.3448 19.992L15.045 20H15.049C15.5533 20 16.0336 19.8079 16.3698 19.4757C16.654 19.1915 16.8101 18.8233 16.8101 18.4431V4.40323H13.1148ZM8.40505 16.0056C5.97959 16.0056 4.0024 14.0284 4.0024 11.603C4.0024 9.17348 5.97959 7.20032 8.40505 7.20032C10.8345 7.20032 12.8077 9.17348 12.8077 11.603C12.8077 14.0284 10.8345 16.0056 8.40505 16.0056Z" fill="#3CD4D4"/>
</g>
</g>
</svg>
