<svg width="19" height="21" viewBox="0 0 19 21" fill="none" xmlns="http://www.w3.org/2000/svg">
<g id="Group 3">
<path id="Vector" d="M7.5048 14.4156C7.3548 14.5594 7.20168 14.3922 7.20168 14.3922C7.20168 14.3922 4.62824 11.7297 4.46261 11.6125C4.22824 11.4453 3.72824 11.186 3.23605 11.7047C3.03136 11.9203 2.69699 12.3985 3.33605 13.1547C3.47355 13.3172 7.48136 17.4422 7.71418 17.6641C7.71418 17.6641 9.56418 19.4219 10.6767 20.0781C10.9861 20.261 11.3329 20.4531 11.7376 20.586C12.1407 20.7188 12.5954 20.8078 13.0736 20.8031C13.5517 20.8031 14.047 20.7047 14.5142 20.5281C14.9814 20.35 15.4157 20.0922 15.8095 19.7969C15.9064 19.7219 16.0032 19.6453 16.0954 19.5656L16.3595 19.3422C16.5439 19.1844 16.7142 19.0203 16.8782 18.85C17.2079 18.5125 17.5048 18.1547 17.7657 17.7875C18.0251 17.4188 18.2454 17.0375 18.4189 16.6594C18.5923 16.2813 18.7142 15.9016 18.7845 15.5422C18.8595 15.1844 18.8782 14.8469 18.8626 14.5547C18.8564 14.261 18.7954 14.0094 18.7439 13.8094C18.6861 13.6094 18.6267 13.4594 18.5782 13.361C18.5314 13.2625 18.5064 13.2094 18.5064 13.2094C18.4407 13.0328 18.3798 12.8641 18.322 12.7125C18.1657 12.2844 17.9861 11.8031 17.7986 11.3094C17.7189 11.1 17.6829 11.0047 17.6829 11.0047L17.6845 11.0078C16.997 9.20627 16.2579 7.34845 16.2579 7.34845C16.1454 7.02189 15.7454 6.91095 15.4517 7.12658C14.6095 7.74689 14.3595 8.64064 14.6704 9.58752L15.4642 11.6844C15.5751 11.9188 15.2798 12.1938 15.0767 12.0328C14.4392 11.5266 13.0876 10.125 13.0876 10.125C12.4845 9.55939 9.07824 6.14845 8.84855 5.94064C8.39074 5.52345 7.81574 5.31252 7.38293 5.63908C6.9423 5.97033 6.82355 6.47814 7.25949 7.02502C7.37824 7.17345 10.822 10.7281 10.822 10.7281C11.0236 10.9344 10.7923 11.2297 10.572 11.0313C10.572 11.0313 6.28761 6.66564 6.09386 6.46095C5.6548 5.99689 4.95793 5.90158 4.55011 6.2922C4.15168 6.67502 4.16886 7.29533 4.61418 7.77658C4.75636 7.9297 7.77355 11.0422 8.98293 12.3172C9.06418 12.4031 9.12667 12.5172 9.01105 12.6281C9.00949 12.6297 8.8923 12.761 8.73605 12.5969C8.40793 12.2547 5.12824 8.9172 4.94543 8.73595C4.52668 8.32189 3.96886 8.1297 3.52824 8.54377C3.12511 8.92189 3.0673 9.57189 3.54074 10.0266L7.51418 14.1297C7.5173 14.1313 7.64542 14.2813 7.5048 14.4156Z" fill="#FAC036"/>
<path id="Vector_2" d="M6.03488 13.4281C5.95363 13.6188 5.74582 13.5234 5.74582 13.5234C5.74582 13.5234 2.33957 12.0719 2.14113 12.0281C1.85988 11.9656 1.29895 11.9219 1.04738 12.5906C0.942696 12.8688 0.820821 13.4391 1.70363 13.8875C1.89426 13.9844 7.18957 16.2234 7.49113 16.3391C7.49113 16.3391 9.87863 17.2391 11.1599 17.4094C11.5161 17.4563 11.9114 17.5 12.3349 17.4641C12.7583 17.4297 13.2114 17.3359 13.6489 17.1438C14.0896 16.9578 14.5068 16.6734 14.8677 16.3297C15.2286 15.9844 15.5286 15.5781 15.7755 15.1531C15.8364 15.0469 15.8958 14.9391 15.9489 14.8297L16.1068 14.5219C16.2146 14.3047 16.3083 14.0859 16.3943 13.8672C16.5677 13.4281 16.7005 12.9828 16.7989 12.5422C16.8943 12.1016 16.9489 11.6656 16.9614 11.2484C16.9739 10.8313 16.938 10.4344 16.8646 10.0766C16.7958 9.7172 16.6802 9.40001 16.5521 9.13595C16.4318 8.8672 16.2771 8.66095 16.1536 8.49532C16.0224 8.33438 15.9099 8.21876 15.8271 8.14689C15.7458 8.07501 15.7021 8.03595 15.7021 8.03595C15.5739 7.89845 15.4505 7.7672 15.3396 7.65001C15.0286 7.31564 14.6755 6.94376 14.3114 6.56251C14.1568 6.40001 14.0864 6.32813 14.0864 6.32813L14.0896 6.33126C12.7536 4.93907 11.3505 3.51564 11.3505 3.51564C11.1208 3.25782 10.7083 3.31251 10.5224 3.62501C9.98801 4.52501 10.1052 5.44376 10.7599 6.19532L12.3068 7.81876C12.5005 7.99063 12.3349 8.35939 12.0849 8.29064C11.3005 8.07189 9.51145 7.30626 9.51145 7.30626C8.73488 7.02032 4.26926 5.20313 3.97707 5.10001C3.3927 4.89376 2.78176 4.92345 2.50988 5.3922C2.23332 5.86876 2.32082 6.38282 2.93645 6.7172C3.10363 6.80782 7.65832 8.7422 7.65832 8.7422C7.92395 8.85313 7.82551 9.21563 7.54582 9.11876C7.54582 9.11876 1.90051 6.76407 1.6427 6.65001C1.05832 6.3922 0.378634 6.57657 0.155196 7.09532C-0.0619911 7.60313 0.195821 8.16876 0.792696 8.43751C0.981759 8.52345 4.97395 10.2172 6.58332 10.9203C6.69113 10.9672 6.7927 11.0484 6.7302 11.1969C6.7302 11.1984 6.67238 11.3656 6.46457 11.275C6.02863 11.0875 1.70988 9.28751 1.47082 9.1922C0.923946 8.97345 0.336446 9.01407 0.0895715 9.56563C-0.135429 10.0703 0.0645714 10.6922 0.677071 10.9266L5.93332 13.1609C5.93332 13.1609 6.11145 13.25 6.03488 13.4281Z" fill="#FAC036"/>
<path id="Vector_3" d="M15.2659 11.0625C15.4425 11.4719 15.7237 11.7688 15.3034 12.0734C14.7315 12.4875 13.5612 11.0688 13.0925 10.5922C12.5097 9.99688 11.9425 9.36719 11.3487 8.77969C10.5409 7.97813 9.4331 6.89063 8.64404 6.06719C7.72998 5.11407 6.81591 6.25157 7.24873 7.13594C7.28935 7.22344 7.34873 7.30938 7.42529 7.40001C7.65967 7.66719 7.91279 7.91563 8.16123 8.17032C8.16435 8.17344 10.1065 10.0328 10.7425 10.675C11.0315 10.975 10.8753 11.3453 10.6909 11.1781C10.5065 11.0109 9.25966 9.89688 8.69404 9.32032C7.80498 8.41407 6.6706 7.28282 5.65498 6.43751C5.07998 5.95782 3.72842 6.92969 5.00342 8.18126C5.05185 8.22969 8.81279 11.9156 9.28935 12.3859C9.44404 12.5375 9.1956 12.6969 9.1956 12.6969C9.09248 12.7875 5.04092 8.94532 4.88935 8.79376C4.05967 7.96094 2.63154 8.99063 3.80029 10.1828C4.22685 10.6172 5.57842 12.0063 6.45654 12.9141C6.74716 13.2156 7.46123 13.8625 7.88935 14.2359C7.97842 14.3141 7.75967 14.4063 7.70654 14.4781C7.62841 14.5859 4.7206 11.9531 4.4206 11.7125C3.75342 11.1781 2.59717 12.1188 3.27529 13.0234C3.62373 13.4875 6.0456 15.7781 6.3956 16.1109C8.21279 17.8375 8.56123 18.2656 10.7722 19.8297C11.0534 20.0297 11.855 20.6484 11.619 20.5484C8.51435 19.2172 5.78154 16.1359 3.41904 13.9828C2.72842 13.3531 2.19717 12.1813 3.01435 11.4C3.33623 11.0938 3.55654 11.0281 3.97373 11.0531C3.97373 11.0531 3.94873 11.0234 3.58467 10.6359C3.2331 10.2625 2.42373 9.13751 3.17529 8.41094C3.76592 7.83907 4.42685 8.08907 4.37685 8.03282C3.81592 7.36251 3.88467 6.62032 4.36279 6.17188C4.93779 5.63126 5.71904 5.60782 6.7331 6.65469C6.6706 6.46719 6.52529 6.00469 7.00967 5.56563C7.94717 4.71251 8.74092 5.32501 10.5269 7.24688C12.0112 8.83907 14.3128 11.1875 14.3128 11.1875C14.444 11.3047 14.7862 11.7156 15.0003 11.5859C15.1253 11.5094 14.9284 11.2797 14.7222 10.8078C13.9815 9.11876 13.9659 7.65157 15.6206 7.04688C15.7269 6.94844 14.9925 7.59219 14.7706 8.31719C14.5565 9.01407 14.8597 10.1172 15.2659 11.0625Z" fill="#E48C15"/>
<path id="Vector_4" d="M15.2389 1L14.2373 4.14219" stroke="#444444" stroke-miterlimit="10" stroke-linecap="round"/>
<path id="Vector_5" d="M6.05273 4.54686L4.38086 2.5578" stroke="#444444" stroke-miterlimit="10" stroke-linecap="round"/>
<path id="Vector_6" d="M7.66231 1.48749L7.29199 4.38749" stroke="#444444" stroke-miterlimit="10" stroke-linecap="round"/>
<path id="Vector_7" d="M17.0234 4.33749L15.0938 5.88749" stroke="#444444" stroke-miterlimit="10" stroke-linecap="round"/>
</g>
</svg>
