<svg width="30" height="24" viewBox="0 0 30 24" fill="none" xmlns="http://www.w3.org/2000/svg">
<g id="Group">
<path id="Vector" fill-rule="evenodd" clip-rule="evenodd" d="M1.77432 0H27.9222C28.4825 0 28.9494 1.12062 27.9222 1.12062H1.77432C0.653696 1.12062 1.12062 0 1.77432 0ZM6.53696 18.2101C6.91051 18.2101 7.09728 18.4903 7.09728 18.7704C7.09728 19.0506 6.91051 19.2374 6.53696 19.2374C6.25681 19.2374 6.07004 19.0506 6.07004 18.7704C6.07004 18.4903 6.25681 18.2101 6.53696 18.2101ZM28.6693 1.77432L29.6031 7.28405H0L1.02724 1.77432H28.6693ZM5.50973 23.3463H11.7665V14.1012H13.5409C14.0078 14.1012 14.4747 13.6342 14.2879 13.2607L13.3541 10.3658C13.1673 9.99222 12.9805 9.61868 12.607 9.61868C9.24514 9.61868 8.03113 9.61868 4.76265 9.61868C4.29572 9.61868 4.10895 9.99222 3.92218 10.3658L2.98833 13.2607C2.80156 13.6342 3.26848 14.1012 3.73541 14.1012H5.50973V23.3463ZM1.8677 24V8.12451H27.7354V24C19.144 24 10.5525 24 1.8677 24ZM4.85603 10.4591C4.85603 10.5525 4.85603 10.6459 4.85603 10.6459L4.01556 13.1673C7.09728 13.1673 10.179 13.1673 13.3541 13.1673L12.4202 10.6459C12.4202 10.6459 12.4202 10.5525 12.4202 10.4591C9.89883 10.4591 7.37743 10.4591 4.85603 10.4591ZM16.249 11.2062H25.3074V19.7977H16.249V11.2062Z" fill="#6B7881"/>
</g>
</svg>
