<svg width="19" height="20" viewBox="0 0 19 20" fill="none" xmlns="http://www.w3.org/2000/svg">
<path id="Vector" d="M15.5747 3.22127H7.81861L10.5708 0.469116C11.1962 -0.156372 12.197 -0.156372 12.8017 0.469116L15.5747 3.22127ZM3.41934 2.22048V3.22127H6.37998L8.96534 0.635913H5.00391C4.12822 0.635913 3.41934 1.3448 3.41934 2.22048ZM9.34063 19.4423H13.177C14.0109 19.4423 14.699 18.7542 14.699 17.9202V16.8986H11.9051L9.34063 19.4423ZM2.6479 16.8778L5.31665 19.5465C5.92129 20.1512 6.88037 20.1512 7.48501 19.5465L10.1538 16.8778H2.6479ZM14.1777 9.10086C13.6565 9.10086 13.2187 9.5387 13.2187 10.0599C13.2187 10.5812 13.6565 11.019 14.1777 11.019C14.699 11.019 15.1368 10.5812 15.1368 10.0599C15.1368 9.5387 14.699 9.10086 14.1777 9.10086ZM4.08653 9.10086C3.56528 9.10086 3.12744 9.5387 3.12744 10.0599C3.12744 10.5812 3.56528 11.019 4.08653 11.019C4.60777 11.019 5.04561 10.5812 5.04561 10.0599C5.04561 9.5387 4.62862 9.10086 4.08653 9.10086ZM18.2643 5.97342V14.1048C18.2643 14.9805 17.5554 15.6893 16.6797 15.6893H1.58457C0.708887 15.6893 0 14.9805 0 14.1048V5.97342C0 5.09773 0.708887 4.38884 1.58457 4.38884H16.6797C17.5554 4.40969 18.2643 5.11858 18.2643 5.97342ZM16.909 7.68309C16.7839 7.72479 16.6588 7.72478 16.5129 7.72478C15.6372 7.72478 14.9075 7.0159 14.9075 6.11936C14.9075 5.99427 14.9283 5.84832 14.9492 5.72322H3.21084C3.23169 5.82747 3.23169 5.91087 3.23169 6.01512C3.23169 6.8908 2.5228 7.62054 1.62627 7.62054C1.52202 7.62054 1.43862 7.62054 1.35523 7.59969V12.4576C1.43862 12.4368 1.54287 12.4368 1.62627 12.4368C2.50195 12.4368 3.23169 13.1457 3.23169 14.0422C3.23169 14.1465 3.23169 14.2507 3.21084 14.3341H14.9283C14.9283 14.2716 14.9075 14.209 14.9075 14.1256C14.9075 13.2499 15.6164 12.5202 16.5129 12.5202C16.6588 12.5202 16.7839 12.541 16.909 12.5619V7.68309ZM12.5932 10.0599C12.5932 11.9781 11.0503 13.521 9.13213 13.521C7.21397 13.521 5.6711 11.9781 5.6711 10.0599C5.6711 8.14178 7.21397 6.59891 9.13213 6.59891C11.0503 6.59891 12.5932 8.14178 12.5932 10.0599ZM11.1337 10.0599C11.1337 8.95491 10.2372 8.05838 9.13213 8.05838C8.0271 8.05838 7.13057 8.95491 7.13057 10.0599C7.13057 11.165 8.0271 12.0615 9.13213 12.0615C10.2372 12.0615 11.1337 11.165 11.1337 10.0599Z" fill="#8954BA"/>
</svg>
