<svg width="24" height="24" viewBox="0 0 24 24" fill="none" xmlns="http://www.w3.org/2000/svg">
<path d="M12 0C9.62663 0 7.30655 0.703788 5.33316 2.02236C3.35977 3.34094 1.8217 5.21508 0.913451 7.4078C0.0051994 9.60051 -0.232441 12.0133 0.230582 14.3411C0.693605 16.6689 1.83649 18.807 3.51472 20.4853C5.19295 22.1635 7.33115 23.3064 9.65892 23.7694C11.9867 24.2324 14.3995 23.9948 16.5922 23.0865C18.7849 22.1783 20.6591 20.6402 21.9776 18.6668C23.2962 16.6934 24 14.3734 24 12C23.9966 8.81845 22.7312 5.76818 20.4815 3.51848C18.2318 1.26878 15.1816 0.00340334 12 0ZM12.8571 12C12.8571 12.2273 12.7668 12.4453 12.6061 12.6061C12.4453 12.7668 12.2273 12.8571 12 12.8571H5.14286C4.91553 12.8571 4.69752 12.7668 4.53677 12.6061C4.37602 12.4453 4.28572 12.2273 4.28572 12C4.28572 11.7727 4.37602 11.5547 4.53677 11.3939C4.69752 11.2332 4.91553 11.1429 5.14286 11.1429H11.1429V5.14286C11.1429 4.91553 11.2332 4.69751 11.3939 4.53676C11.5547 4.37602 11.7727 4.28571 12 4.28571C12.2273 4.28571 12.4453 4.37602 12.6061 4.53676C12.7668 4.69751 12.8571 4.91553 12.8571 5.14286V12Z" fill="#1C75BC"/>
</svg>
